<svg width="86" height="86" viewBox="0 0 86 86" fill="none" xmlns="http://www.w3.org/2000/svg">
<circle cx="43" cy="43" r="43" fill="#E44121"/>
<rect width="55" height="55" transform="translate(16 15)" fill="#E44121"/>
<path d="M51.7312 31.4408C51.666 31.2479 51.5412 31.0799 51.3743 30.9605C51.2073 30.841 51.0066 30.7759 50.8003 30.7745H45.9303L44.431 26.2165C44.3666 26.0233 44.2419 25.8551 44.0747 25.7358C43.9076 25.6166 43.7065 25.5524 43.5001 25.5524C43.2938 25.5524 43.0927 25.6166 42.9255 25.7358C42.7583 25.8551 42.6337 26.0233 42.5692 26.2165L41.07 30.7745H36.1999C35.9936 30.7759 35.7929 30.841 35.626 30.9605C35.4591 31.0799 35.3342 31.2479 35.269 31.4408C35.2039 31.6356 35.204 31.8458 35.2692 32.0405C35.3345 32.2352 35.4615 32.4041 35.6316 32.5223L39.5609 35.3421L38.0617 39.9001C37.997 40.0939 37.9963 40.3031 38.0596 40.4974C38.123 40.6917 38.2472 40.8612 38.4145 40.9816C38.5836 41.0994 38.7855 41.1627 38.9926 41.1627C39.1997 41.1627 39.4017 41.0994 39.5707 40.9816L43.5001 38.1619L47.4295 40.9816C47.6 41.0968 47.8009 41.1606 48.0076 41.1651C48.2148 41.1635 48.4166 41.0995 48.5858 40.9816C48.753 40.8612 48.8772 40.6917 48.9406 40.4974C49.004 40.3031 49.0033 40.0939 48.9385 39.9001L47.4393 35.3421L51.3687 32.5223C51.5387 32.4041 51.6657 32.2352 51.731 32.0405C51.7963 31.8458 51.7964 31.6356 51.7312 31.4408ZM45.7147 34.193C45.5464 34.3127 45.4208 34.4817 45.3557 34.6759C45.2906 34.8701 45.2893 35.0796 45.3521 35.2745L46.1458 37.6694L44.0783 36.1822C43.9098 36.0629 43.7076 35.9987 43.5001 35.9987C43.2927 35.9987 43.0904 36.0629 42.922 36.1822L40.8544 37.6694L41.6481 35.2745C41.7109 35.0796 41.7097 34.8701 41.6446 34.6759C41.5795 34.4817 41.4538 34.3127 41.2856 34.193L39.218 32.7058H41.7755C41.9825 32.707 42.1844 32.643 42.3519 32.5232C42.5193 32.4033 42.6435 32.2338 42.7064 32.0395L43.5001 29.6446L44.2938 32.0395C44.3567 32.2338 44.4809 32.4033 44.6484 32.5232C44.8158 32.643 45.0178 32.707 45.2247 32.7058H47.7823L45.7147 34.193Z" fill="white"/>
<path d="M43.4999 21.4846C40.1546 21.4837 36.9382 22.7564 34.5225 25.0368C32.1067 27.3173 30.6782 30.4293 30.5353 33.723C30.3924 37.0168 31.5461 40.2376 33.7556 42.7129C35.9651 45.1883 39.0594 46.7268 42.3926 47.0073C42.7649 47.0363 43.1275 47.0556 43.4999 47.0556C43.833 47.0556 44.176 47.0363 44.5092 47.0073H44.6071V46.9977C47.939 46.7172 51.0322 45.1792 53.2408 42.7048C55.4494 40.2303 56.6026 37.0107 56.4597 33.7182C56.3168 30.4257 54.8889 27.3149 52.4739 25.0354C50.059 22.7558 46.8439 21.4837 43.4999 21.4846ZM53.1126 39.562C53.11 39.562 53.1075 39.563 53.1057 39.5648C53.1039 39.5666 53.1028 39.5691 53.1028 39.5716C52.2263 41.1197 50.9768 42.4315 49.4645 43.3914C47.9522 44.3513 46.2235 44.9298 44.4308 45.076L44.421 45.0856H44.4112C43.7984 45.1451 43.181 45.1419 42.569 45.076C40.2003 44.8771 37.9606 43.928 36.1846 42.3706C34.4087 40.8132 33.1919 38.7311 32.7163 36.4358C32.2407 34.1404 32.5317 31.7549 33.5458 29.636C34.56 27.5172 36.2428 25.7787 38.3427 24.6805C40.4426 23.5823 42.8468 23.1834 45.1959 23.5435C47.5449 23.9035 49.7126 25.0032 51.3748 26.678C53.0371 28.3528 54.1046 30.5128 54.4179 32.8352C54.7311 35.1575 54.2732 37.5174 53.1126 39.562Z" fill="white"/>
<path d="M69.8396 62.4967L66.1552 56.8669C63.5192 52.8593 60.8866 48.8453 58.2572 44.8249C58.463 44.7477 58.6982 44.6608 58.9333 44.5835C59.4644 44.4787 59.9691 44.2711 60.4182 43.9727C60.8673 43.6744 61.2519 43.2912 61.5497 42.8453C61.7162 42.3412 61.7802 41.8096 61.7382 41.281C61.6962 40.7525 61.5488 40.2373 61.3047 39.7648C61.0744 39.2706 60.9509 38.7346 60.9421 38.1908C61.1848 37.726 61.5217 37.3152 61.9318 36.9837C62.368 36.6582 62.7346 36.2508 63.0104 35.7851C63.2862 35.3194 63.4658 34.8045 63.5388 34.2701C63.4669 33.7368 63.2877 33.2229 63.0117 32.7587C62.7358 32.2944 62.3687 31.889 61.9318 31.5663C61.5232 31.2295 61.1867 30.8159 60.9421 30.3495C60.9509 29.8057 61.0744 29.2697 61.3047 28.7755C61.5487 28.3047 61.6959 27.7911 61.7379 27.2641C61.78 26.7372 61.716 26.2072 61.5497 25.7046C61.251 25.2596 60.8662 24.8769 60.4172 24.5786C59.9683 24.2804 59.464 24.0723 58.9333 23.9664C58.4056 23.8349 57.9094 23.6019 57.4733 23.2808C57.2564 22.7894 57.1367 22.2617 57.1205 21.7261C57.1353 21.1939 57.0433 20.664 56.85 20.1669C56.6566 19.6698 56.3656 19.2152 55.9937 18.8291C55.0571 18.2857 53.9404 18.1295 52.8874 18.3945C52.3541 18.503 51.8039 18.503 51.2706 18.3945C50.8601 18.0557 50.5235 17.6385 50.2809 17.1681C50.058 16.6753 49.738 16.2311 49.3393 15.8614C48.9405 15.4917 48.4712 15.2039 47.9585 15.0147C47.4276 14.9697 46.8929 15.0284 46.3851 15.1875C45.8773 15.3466 45.4063 15.6029 44.9992 15.9417C44.5541 16.276 44.0437 16.516 43.5 16.6466C42.9563 16.516 42.4459 16.276 42.0008 15.9417C41.5951 15.6036 41.1258 15.3477 40.6197 15.1887C40.1136 15.0296 39.5806 14.9704 39.0513 15.0147C38.5365 15.2022 38.065 15.4894 37.6644 15.8592C37.2639 16.229 36.9425 16.6741 36.7191 17.1681C36.4762 17.6356 36.1434 18.0521 35.7392 18.3945C35.2026 18.5028 34.6493 18.5028 34.1126 18.3945C33.0628 18.1294 31.9491 18.2857 31.0161 18.8291C30.64 19.2147 30.3458 19.6704 30.1506 20.1695C29.9554 20.6686 29.8632 21.2011 29.8795 21.7357C29.8695 22.2701 29.746 22.7964 29.5169 23.2808C29.0897 23.6024 28.5991 23.8326 28.0765 23.9568C27.0022 24.1709 26.0578 24.7959 25.4503 25.695C25.2838 26.1991 25.2198 26.7307 25.2618 27.2593C25.3038 27.7878 25.4512 28.303 25.6953 28.7755C25.9256 29.2697 26.0491 29.8057 26.0579 30.3495C25.8133 30.8159 25.4768 31.2295 25.0682 31.5663C24.6314 31.889 24.2642 32.2944 23.9883 32.7587C23.7123 33.2229 23.5331 33.7368 23.4612 34.2701C23.5342 34.8045 23.7138 35.3194 23.9896 35.7851C24.2654 36.2508 24.632 36.6582 25.0682 36.9837C25.4783 37.3152 25.8152 37.726 26.0579 38.1908C26.0491 38.7346 25.9256 39.2706 25.6953 39.7648C25.4513 40.2356 25.3041 40.7492 25.2621 41.2762C25.22 41.8031 25.284 42.3331 25.4503 42.8356C25.7466 43.2828 26.1307 43.667 26.5801 43.9656C27.0294 44.2641 27.5349 44.4709 28.0667 44.5739C28.292 44.6608 28.5272 44.738 28.7428 44.8249C26.1069 48.8421 23.4742 52.8561 20.8448 56.8669L17.1604 62.4967C17.0542 62.6545 16.9983 62.84 17 63.0293C17.0018 63.2187 17.0611 63.4031 17.1702 63.559C17.2767 63.7147 17.4273 63.8362 17.6032 63.9083C17.7792 63.9804 17.9728 64 18.1599 63.9645L24.8526 62.7381L26.4792 69.2661C26.5265 69.4485 26.6268 69.6133 26.7678 69.7402C26.9088 69.8672 27.0844 69.9507 27.2729 69.9807C27.3245 69.9918 27.377 69.9983 27.4297 70C27.5939 70.0011 27.7557 69.9608 27.8998 69.8831C28.0438 69.8054 28.1653 69.6927 28.2528 69.5558L38.8161 53.4387C38.8945 53.458 38.9631 53.5063 39.0415 53.5256C39.202 53.5634 39.3664 53.5828 39.5314 53.5836C40.4309 53.4859 41.2855 53.145 42.0008 52.5986C42.4459 52.2643 42.9563 52.0243 43.5 51.8936C44.0437 52.0243 44.5541 52.2643 44.9992 52.5986C45.4066 52.9401 45.8791 53.198 46.3889 53.3572C46.8988 53.5164 47.4357 53.5736 47.9683 53.5256C48.0467 53.5063 48.1153 53.458 48.1839 53.4387L58.7472 69.5558C58.8347 69.6927 58.9562 69.8054 59.1002 69.8831C59.2443 69.9608 59.4061 70.0011 59.5703 70C59.623 69.9983 59.6755 69.9918 59.7271 69.9807C59.9156 69.9507 60.0912 69.8672 60.2322 69.7402C60.3732 69.6133 60.4735 69.4485 60.5208 69.2661L62.1474 62.7381L68.8401 63.9645C69.0272 63.999 69.2204 63.9789 69.3962 63.9069C69.5719 63.8349 69.7226 63.714 69.8298 63.559C69.9389 63.4031 69.9982 63.2187 70 63.0293C70.0017 62.84 69.9458 62.6545 69.8396 62.4967ZM27.8413 66.6201L26.538 61.3958C26.4795 61.1562 26.3302 60.9477 26.1206 60.813C25.9111 60.6784 25.6573 60.6278 25.4111 60.6716L20.0413 61.6566L22.4911 57.9194C24.9408 54.1726 27.3971 50.4258 29.8599 46.679C29.8705 46.7234 29.8771 46.7687 29.8795 46.8142C29.8647 47.3464 29.9567 47.8762 30.15 48.3734C30.3434 48.8705 30.6344 49.3251 31.0063 49.7112C31.9431 50.2541 33.0596 50.4103 34.1126 50.1458C34.6459 50.0373 35.1961 50.0373 35.7294 50.1458C36.1422 50.4824 36.4793 50.9001 36.7191 51.3722C36.9053 51.6522 37.0915 51.9323 37.2875 52.2027L27.8413 66.6201ZM47.8115 51.4494C47.7323 51.538 47.631 51.6046 47.5176 51.6426C47.2432 51.7005 46.5181 51.266 46.0477 50.9666C45.311 50.4028 44.4281 50.0548 43.5 49.9623C42.5719 50.0548 41.689 50.4028 40.9523 50.9666C40.4819 51.266 39.7568 51.7102 39.4922 51.6522C39.3721 51.6069 39.2646 51.5341 39.1787 51.4398C38.8752 51.1051 38.6091 50.7393 38.385 50.3486C37.9795 49.5515 37.359 48.88 36.5917 48.4076C36.1463 48.2077 35.6601 48.1119 35.1709 48.1275C34.7448 48.1357 34.3194 48.1679 33.897 48.2241C33.2895 48.2917 32.4664 48.3883 32.2312 48.2048C31.996 48.0213 31.8981 47.2005 31.8295 46.6018C31.8175 45.6975 31.5494 44.8145 31.0553 44.0524C30.9774 43.956 30.8886 43.8685 30.7908 43.7917C30.7534 43.7604 30.7141 43.7314 30.6732 43.7048L30.6634 43.6951H30.6536C30.0678 43.2729 29.411 42.9558 28.7134 42.7584C28.1353 42.5556 27.3513 42.2852 27.2142 41.9955C27.077 41.7251 27.3513 40.9622 27.5473 40.4022C27.9398 39.5809 28.086 38.6663 27.9687 37.7659C27.6809 36.9201 27.154 36.173 26.4498 35.6124C26.0187 35.1875 25.4209 34.5985 25.4209 34.2701C25.4209 33.9418 26.0187 33.3528 26.4498 32.9279C27.154 32.3673 27.6809 31.6202 27.9687 30.7744C28.086 29.874 27.9398 28.9594 27.5473 28.1381C27.3513 27.578 27.077 26.8152 27.2142 26.5351C27.3513 26.2551 28.1451 25.9847 28.7232 25.7819C29.6065 25.5772 30.4122 25.1283 31.0455 24.4879C31.5469 23.7322 31.8189 22.851 31.8295 21.9482C31.8981 21.3495 31.9862 20.5383 32.2312 20.3452C32.4762 20.152 33.2895 20.2486 33.897 20.3162C34.795 20.5047 35.7286 20.4411 36.5917 20.1327C37.3614 19.6631 37.9825 18.9908 38.385 18.1917C38.7083 17.6703 39.1591 16.9653 39.4824 16.8977C39.7568 16.8301 40.4819 17.284 40.9523 17.5737C41.689 18.1375 42.5719 18.4855 43.5 18.578C44.4281 18.4855 45.311 18.1375 46.0477 17.5737C46.5181 17.284 47.2334 16.8398 47.5176 16.8977C47.8409 16.9653 48.2917 17.6703 48.6151 18.1917C49.0175 18.9908 49.6386 19.6631 50.4083 20.1327C51.2714 20.4411 52.205 20.5047 53.103 20.3162C53.7105 20.2486 54.5336 20.152 54.7688 20.3355C55.004 20.519 55.102 21.3398 55.1705 21.9385C55.1825 22.8428 55.4506 23.7258 55.9447 24.4879C56.5874 25.1283 57.3983 25.5797 58.2866 25.7916C58.8647 25.9847 59.6487 26.2551 59.7858 26.5448C59.923 26.8152 59.6487 27.578 59.4527 28.1381C59.0602 28.9594 58.914 29.874 59.0313 30.7744C59.3191 31.6202 59.846 32.3673 60.5502 32.9279C60.9813 33.3528 61.5791 33.9418 61.5791 34.2701C61.5791 34.5985 60.9813 35.1875 60.5502 35.6124C59.846 36.173 59.3191 36.9201 59.0313 37.7659C58.914 38.6663 59.0602 39.5809 59.4527 40.4022C59.6487 40.9622 59.923 41.7251 59.7858 42.0052C59.6487 42.2852 58.8549 42.5653 58.2866 42.7584C57.5528 42.956 56.8643 43.2903 56.2582 43.7434C56.1496 43.8391 56.0481 43.9424 55.9545 44.0524C55.4531 44.8081 55.1811 45.6892 55.1705 46.5921C55.102 47.1908 55.0138 48.002 54.7688 48.1951C54.5238 48.3883 53.7105 48.2917 53.103 48.2241C52.2054 48.0307 51.2704 48.0944 50.4083 48.4076C49.641 48.88 49.0205 49.5515 48.6151 50.3486C48.3886 50.7432 48.1191 51.1123 47.8115 51.4494ZM61.5889 60.6716C61.3427 60.6278 61.0889 60.6784 60.8794 60.813C60.6698 60.9477 60.5205 61.1562 60.462 61.3958L59.1587 66.6201L49.7125 52.2027C49.9085 51.9323 50.0947 51.6522 50.2809 51.3722C50.521 50.9029 50.8542 50.4859 51.2608 50.1458C51.7974 50.0374 52.3508 50.0374 52.8874 50.1458C53.9372 50.4109 55.0509 50.2546 55.9839 49.7112C56.3591 49.327 56.6529 48.8729 56.848 48.3755C57.0432 47.878 57.1358 47.3473 57.1205 46.8142C57.1222 46.7686 57.1288 46.7233 57.1401 46.679C59.5997 50.4258 62.0559 54.1726 64.5089 57.9194L66.9587 61.6566L61.5889 60.6716Z" fill="white"/>
</svg>
